# xmcd CD database file
#
# Track frame offsets:
#	150
#	32006
#	54235
#	74651
#	95683
#	113298
#	130186
#	152959
#	170983
#	192191
#	212230
#	229407
#	257672
#
# Disc length: 3520 seconds
#
# Revision: 0
# Processed by: cddbd v1.5.2PL0 Copyright (c) Steve Scherf et al.
# Submitted via: CDex 1.70beta2
#
DISCID=bc0dbe0d
DTITLE=Grupo Nataraja - Despertar de Nataraja
DYEAR=1900
DGENRE=New Age
TTITLE0=Makripa Karo
TTITLE1=Allah Ho
TTITLE2=Mandir
TTITLE3=Jaya Devi Mata
TTITLE4=Om Namah Shivaia
TTITLE5=Bala Gangadhara
TTITLE6=Ya Devi
TTITLE7=Krishna, Krishna
TTITLE8=Mamãe Oxum
TTITLE9=Gopala Vithala
TTITLE10=Shiva Maheswara
TTITLE11=Hare Rama
TTITLE12=Om Shanti Om
EXTD=
EXTT0=
EXTT1=
EXTT2=
EXTT3=
EXTT4=
EXTT5=
EXTT6=
EXTT7=
EXTT8=
EXTT9=
EXTT10=
EXTT11=
EXTT12=
PLAYORDER=
